<svg xmlns="http://www.w3.org/2000/svg" viewBox="0 0 161.6 194.88"><defs><style>.cls-1{fill:#754c29;}.cls-2,.cls-4{fill:#5e3512;}.cls-3{fill:#a7a9ac;}.cls-4{font-size:22.33px;font-family:MyriadPro-Regular, Myriad Pro;}.cls-5{letter-spacing:-0.01em;}</style></defs><title>Asset 1</title><g id="Layer_2" data-name="Layer 2"><g id="logo_coloured"><path class="cls-1" d="M28.88,117.1C10.27,146.88,55.4,159.91,55.4,159.91,65.64,165.49,96.81,166,96.81,166c54.91-4.19,63.75-29.78,63.75-29.78,3.72-10.7-3.72-19.08-3.72-19.08,3.72,27.45-15.82,31.18-15.82,31.18-35.83,20.47-74.91,9.3-74.91,9.3C12.6,146.41,28.88,117.1,28.88,117.1Z"/><path class="cls-1" d="M54.24,135.48c8.84,12.56,29.31,13.73,29.31,13.73,30,3.49,42.34-10.71,42.34-10.71l1.87-3c-12.1,12.8-38.62,11.63-38.62,11.63C72.15,148.74,54.24,135.48,54.24,135.48Z"/><path class="cls-2" d="M38.91,82.39C37.75,69.13,86.83,67,86.83,67c33.27-1.16,49.79,9.54,49.79,9.54l1.63,1.86c2.56,3.26,0,5.07,0,5.07-6.05,4-8.38,1.91-8.38,1.91,5.12-4.42-.46-7.67-.46-7.67-9.77-6-24.66-6.52-24.66-6.52-12.33-.93-13.26.47-13.26.47,16.75,1.16,27,4.76,27,4.76,11.17,4.08,11.17,7,11.17,7,.23,1.91-3,2.46-3,2.46-24.43,4.57-50,3.18-50,3.18C51,87.74,38.91,82.39,38.91,82.39Z"/><path class="cls-1" d="M26.79,77.79c-3.26-.24-16.52,0-16.52,0,.93,14.88,10.24,22.1,10.24,22.1,6.51,6,16.52,9.77,16.52,9.77-10.94.46-24-9.08-24-9.08C-1.36,87.56,0,71.5,0,71.5c2.09-4.18,27.22-1.86,27.22-1.86Z"/><path class="cls-1" d="M32.6,82.15c9.07,7.5,37,11.45,37,11.45,47.92,2.8,70.25-5.72,70.25-5.72,10-3.81,10.7-5.73,10.7-5.73a69.36,69.36,0,0,1,7-5.36c1.17-5.29,0-6.22,0-6.22a37.75,37.75,0,0,0-5.58,0c2.79,5.82-16.48,14-16.48,14C127.39,85,93.32,88,93.32,88,69.59,88.72,41.67,81,41.67,81,30.5,77.32,30.5,70.47,30.5,70.47A6.58,6.58,0,0,0,26.78,68c-.7,1.63-1.16,9.78-1.16,9.78a11.47,11.47,0,0,1,.55,5c-.09.78-.09.78,1.08.32A17.87,17.87,0,0,1,32.6,82.15Z"/><path class="cls-1" d="M25.71,82.82l5.5-1.73c5.82,24.15,12.1,32.52,12.1,32.52,13.72,16.52,22.1,19.54,22.1,19.54C80.76,139.67,91.83,139,91.83,139c19.64-1.63,28.48-7.44,28.48-7.44C139.85,116.17,146.13,98,146.13,98c4.42-9.53,4-15.87,4-15.87l7.26-6.84c.18,19.23-13.54,39.93-13.54,39.93-12.56,14.66-20.94,18.15-20.94,18.15C98.71,146.76,71.69,138,71.69,138c-21.87-8.61-30.5-20.94-30.5-20.94C25.39,96.63,25.71,82.82,25.71,82.82Z"/><path class="cls-1" d="M25.71,69.41C31,54.75,65.18,52,65.18,52a203.64,203.64,0,0,1,40.71-1.39c33.73,4.42,43.5,10.7,43.5,10.7,8.61,5.12,8.13,9.3,8.13,9.3h-5.58C152,63,139.39,58.94,139.39,58.94c-27.22-10.23-64.91-6.75-64.91-6.75C48.89,52.66,35.4,62.43,35.4,62.43c-7,6.18-4.7,9.26-4.7,9.26Z"/><path class="cls-3" d="M72.72,12.29c-1.31,2.93.87,7.69.87,7.69,1.12,3.25,2.48,7.36,2.48,7.36a4,4,0,0,1-1.43,3.36c3.34,0,4.11,4.48,4.11,4.48.37.64,2.5,6.81,2.5,6.81,1.35,3.26,2,3.5,2,3.5l1.35.78h0a3.23,3.23,0,0,1-4-1.49c-2.76-6.88-4.17-11.67-4.17-11.67A5.28,5.28,0,0,0,73.59,31a4.6,4.6,0,0,0,1-3.34L70.82,16.43h0A3.8,3.8,0,0,1,72.72,12.29Z"/><path class="cls-3" d="M96.31,35.52c2.63-1.86,3.16-7.06,3.16-7.06.68-3.38,1.59-7.61,1.59-7.61A4,4,0,0,1,104,18.68c-2.87-1.7-1.26-5.94-1.26-5.94C102.73,12,104,5.6,104,5.6c.49-3.49.07-4,.07-4L103.32.22h0A3.22,3.22,0,0,1,106,3.53c-1.11,7.33-2.31,12.17-2.31,12.17a5.2,5.2,0,0,0,1.36,3.23,4.65,4.65,0,0,0-2.57,2.36l-2.43,11.63h0A3.81,3.81,0,0,1,96.31,35.52Z"/><path class="cls-3" d="M85,32.34c1.79-1.27,2.15-4.82,2.15-4.82.47-2.31,1.09-5.19,1.09-5.19a2.74,2.74,0,0,1,2-1.49c-2-1.16-.86-4.05-.86-4.05,0-.51.88-4.87.88-4.87.33-2.39,0-2.75,0-2.75l-.53-.93h0a2.22,2.22,0,0,1,1.84,2.27c-.76,5-1.58,8.3-1.58,8.3A3.61,3.61,0,0,0,91,21a3.14,3.14,0,0,0-1.75,1.61l-1.66,7.93h0A2.6,2.6,0,0,1,85,32.34Z"/><path class="cls-2" d="M46.91,189.26c-3.5-1-2.24-8.53-2.24-8.53A12.72,12.72,0,0,1,49,173.14c3.27-2.34,4-.85,4-.85.36,1.09-2,5.72-2,5.72-1.07,2.61-2.37,6.64-2.37,6.64a21.66,21.66,0,0,0-1.1,4.21C47.31,189.47,46.91,189.26,46.91,189.26Z"/><path class="cls-2" d="M54,172.78c3.5,1,2.28,8.52,2.28,8.52A12.65,12.65,0,0,1,52,188.9c-3.26,2.35-4,.87-4,.87-.36-1.09,2-5.73,2-5.73,1.06-2.61,2.35-6.65,2.35-6.65a21.24,21.24,0,0,0,1.08-4.21C53.55,172.57,54,172.78,54,172.78Z"/><path class="cls-2" d="M101.09,190.82c-3.49-1-2.24-8.53-2.24-8.53a12.66,12.66,0,0,1,4.3-7.59c3.27-2.34,4-.85,4-.85.36,1.09-2,5.72-2,5.72-1.07,2.61-2.38,6.64-2.38,6.64a21.74,21.74,0,0,0-1.09,4.21C101.5,191,101.09,190.82,101.09,190.82Z"/><path class="cls-2" d="M108.14,174.34c3.5,1,2.28,8.52,2.28,8.52a12.69,12.69,0,0,1-4.27,7.6c-3.26,2.35-4,.87-4,.87-.36-1.09,2-5.73,2-5.73,1.06-2.61,2.35-6.65,2.35-6.65a21.2,21.2,0,0,0,1.08-4.22C107.74,174.12,108.14,174.34,108.14,174.34Z"/><text class="cls-4" transform="translate(28.96 189.3)"><tspan xml:space="preserve">C   de C   </tspan><tspan class="cls-5" x="82.83" y="0">ff</tspan><tspan x="95.56" y="0">ee</tspan></text></g></g></svg>